PathFileType  4	(X/Y/Z) C:\Users\15086\Documents\NMBL_Research\NordBoard_Files\K_Nord_Zeroed\
DataRate	CameraRate	NumFrames	NumMarkers	Units	OrigDataRate	OrigDataStartFrame	OrigNumFrames
  200.0		  200.0		   4		     52		 mm	  200.0	      479	   1912
Frame#	Time	C7			R_Shoulder			L_Shoulder			Sternum			R_humerus			R_elbow_med			R_elbow_lat			R_forearm			R_wrist_radius			R_wrist_ulna			L_humerus			L_elbow_med			L_elbow_lat			L_forearm			L_wrist_radius			L_wrist_ulna			r.ASIS			r.PSIS			r_IC			L.ASIS			L.PSIS			l_IC			r_thigh1			r_thigh2			r_thigh3			r_thigh4			r_thigh5			r_knee			r_mknee			r_shank_antsup			r_sh2			r_sh3			r_sh4			r_ankle			r_mankle			r_calc			r_5meta			r_toe			L_thigh1			L_thigh2			L_thigh3			L_thigh4			L_knee			L_mknee			L_shank_antsup			L_sh2			L_sh3			L_ankle			L_mankle			L_calc			L_5meta			L_toe			
		X1	Y1	Z1	X2	Y2	Z2	X3	Y3	Z3	X4	Y4	Z4	X5	Y5	Z5	X6	Y6	Z6	X7	Y7	Z7	X8	Y8	Z8	X9	Y9	Z9	X10	Y10	Z10	X11	Y11	Z11	X12	Y12	Z12	X13	Y13	Z13	X14	Y14	Z14	X15	Y15	Z15	X16	Y16	Z16	X17	Y17	Z17	X18	Y18	Z18	X19	Y19	Z19	X20	Y20	Z20	X21	Y21	Z21	X22	Y22	Z22	X23	Y23	Z23	X24	Y24	Z24	X25	Y25	Z25	X26	Y26	Z26	X27	Y27	Z27	X28	Y28	Z28	X29	Y29	Z29	X30	Y30	Z30	X31	Y31	Z31	X32	Y32	Z32	X33	Y33	Z33	X34	Y34	Z34	X35	Y35	Z35	X36	Y36	Z36	X37	Y37	Z37	X38	Y38	Z38	X39	Y39	Z39	X40	Y40	Z40	X41	Y41	Z41	X42	Y42	Z42	X43	Y43	Z43	X44	Y44	Z44	X45	Y45	Z45	X46	Y46	Z46	X47	Y47	Z47	X48	Y48	Z48	X49	Y49	Z49	X50	Y50	Z50	X51	Y51	Z51	X52	Y52	Z52	

479	2.39000	1238.832	1257.393	-518.847	1354.747	1255.070	-567.195	1103.060	1262.479	-548.993	1223.510	1187.370	-636.818	1517.610	1226.017	-501.179	1650.198	1156.378	-533.774	1633.334	1203.878	-464.962	1632.247	1301.603	-543.190	1584.909	1350.988	-655.472	1643.306	1377.572	-626.391	950.830	1225.409	-459.075	793.166	1175.039	-497.057	819.982	1234.439	-434.719	844.196	1311.646	-499.394	859.076	1384.137	-601.190	929.168	1359.679	-592.862	1347.732	724.272	-508.835	1314.729	866.829	-375.690	1394.410	833.475	-469.791	1119.330	719.522	-482.594	1200.397	868.968	-362.790	1089.620	826.797	-466.620	1365.866	495.688	-451.107	1358.805	385.068	-416.001	1396.078	364.398	-379.968	1424.418	518.845	-362.597	1412.751	407.050	-330.375	1395.971	306.048	-309.212	1271.288	308.930	-296.445	1418.785	308.906	-203.409	1425.390	317.824	-81.525	1422.010	386.319	-206.203	1411.070	397.984	-89.768	1422.461	361.748	78.725	1345.868	338.732	78.610	1356.083	432.185	83.369	1424.497	297.282	198.916	1385.290	246.775	183.500	1041.892	541.854	-389.434	1031.182	409.052	-346.621	1052.195	581.076	-276.901	1061.662	446.835	-240.139	1033.395	337.674	-261.641	1160.953	310.090	-264.138	1025.921	321.732	-163.715	1039.914	410.140	-171.698	1048.193	408.671	-49.742	1082.606	376.834	112.807	1156.728	348.748	103.597	1126.781	434.726	117.724	1105.505	295.310	243.637	1139.645	253.138	216.061
480	2.39500	1239.276	1257.491	-519.426	1354.739	1255.015	-567.325	1103.056	1262.437	-549.095	1223.475	1187.327	-636.936	1517.584	1225.996	-501.286	1650.187	1156.355	-533.851	1633.293	1203.828	-465.013	1632.194	1301.588	-543.477	1584.925	1350.953	-655.543	1643.336	1377.564	-626.457	950.830	1225.407	-459.204	793.171	1175.037	-497.106	820.002	1234.443	-434.763	844.197	1311.622	-499.469	859.175	1384.396	-601.349	929.157	1359.664	-592.937	1347.663	724.232	-508.938	1314.703	866.797	-375.810	1394.407	833.433	-469.947	1119.281	719.499	-482.664	1200.401	868.957	-362.916	1089.598	826.766	-466.709	1365.829	495.662	-451.154	1358.938	384.934	-416.327	1396.043	364.417	-379.992	1424.387	518.832	-362.676	1412.715	407.056	-330.407	1395.969	306.028	-309.216	1271.297	308.909	-296.451	1418.781	308.924	-203.418	1425.413	317.835	-81.546	1422.004	386.337	-206.199	1411.263	398.002	-89.849	1422.509	361.713	78.693	1345.976	338.651	78.669	1356.060	432.222	83.376	1424.522	297.242	198.900	1385.254	246.372	183.546	1041.887	541.829	-389.452	1031.261	408.698	-346.914	1052.169	581.042	-276.976	1061.651	446.855	-240.157	1033.009	338.085	-261.450	1160.976	310.080	-264.145	1025.925	321.765	-163.616	1039.913	410.125	-171.688	1048.497	408.892	-49.346	1082.623	376.942	112.829	1156.685	348.757	103.671	1126.786	434.763	117.714	1105.509	295.344	243.634	1139.625	253.190	216.068
481	2.40000	1238.795	1257.325	-519.107	1354.745	1254.976	-567.444	1103.069	1262.351	-549.223	1223.492	1187.300	-637.050	1517.589	1225.885	-501.378	1650.184	1156.274	-533.904	1633.296	1203.739	-465.090	1632.232	1301.477	-543.317	1584.939	1350.905	-655.603	1643.369	1377.512	-626.494	950.863	1225.339	-459.274	793.178	1174.996	-497.177	820.002	1234.432	-434.834	844.206	1311.607	-499.527	859.038	1384.054	-601.381	929.130	1359.625	-593.012	1347.637	724.183	-509.015	1314.707	866.719	-375.968	1394.377	833.379	-470.061	1119.259	719.514	-482.710	1200.428	868.937	-363.047	1089.559	826.784	-466.778	1365.839	495.631	-451.191	1358.387	384.688	-416.250	1396.042	364.386	-380.023	1424.380	518.822	-362.771	1412.722	407.057	-330.445	1395.996	305.994	-309.224	1271.281	308.916	-296.464	1418.812	308.937	-203.413	1425.416	317.825	-81.561	1421.995	386.340	-206.242	1411.144	398.031	-89.820	1422.555	361.694	78.693	1345.890	338.813	78.576	1356.166	432.155	83.393	1424.613	297.197	198.877	1385.461	246.655	183.463	1041.828	541.769	-389.487	1031.155	409.026	-346.618	1052.174	581.013	-276.987	1061.655	446.840	-240.173	1033.421	337.718	-261.656	1160.974	310.065	-264.169	1025.938	321.783	-163.667	1039.932	410.114	-171.709	1048.507	408.950	-49.334	1082.631	376.911	112.806	1156.783	348.694	103.638	1126.801	434.788	117.704	1105.499	295.443	243.648	1139.635	253.171	216.072
482	2.40500	1238.293	1257.255	-519.426	1354.765	1254.836	-567.587	1103.100	1262.261	-549.339	1223.477	1187.177	-637.198	1517.608	1225.781	-501.470	1650.207	1156.131	-533.982	1633.289	1203.630	-465.155	1632.269	1301.363	-543.382	1584.937	1350.841	-655.699	1643.426	1377.361	-626.642	950.908	1225.231	-459.351	793.162	1175.014	-497.216	820.027	1234.413	-434.883	844.258	1311.510	-499.618	859.014	1384.023	-601.481	929.114	1359.589	-593.133	1347.613	724.123	-509.120	1314.738	866.676	-376.149	1394.377	833.265	-470.218	1119.204	719.469	-482.812	1200.481	868.851	-363.176	1089.503	826.738	-466.891	1365.812	495.552	-451.259	1357.898	384.715	-414.493	1396.021	364.369	-380.049	1424.328	518.840	-362.825	1412.730	407.032	-330.495	1396.043	305.894	-309.253	1271.291	308.893	-296.479	1418.837	308.921	-203.473	1425.482	317.771	-81.583	1421.987	386.321	-206.267	1411.263	398.112	-89.893	1422.671	361.566	78.656	1345.945	338.733	78.587	1356.254	432.070	83.348	1424.746	297.025	198.865	1385.501	246.512	183.490	1041.799	541.750	-389.560	1031.133	408.987	-346.616	1052.182	581.106	-276.947	1061.677	446.893	-240.172	1033.399	337.714	-261.712	1160.981	310.054	-264.215	1025.963	321.779	-163.682	1040.004	410.099	-171.720	1048.511	408.917	-49.363	1082.656	376.982	112.811	1156.858	348.605	103.587	1126.828	434.800	117.694	1105.509	295.388	243.607	1139.668	253.265	216.064
